<svg version="1.1" viewBox="0.0 0.0 600.0 371.0" fill="none" stroke="none" stroke-linecap="square" stroke-miterlimit="10" width="600" height="371" xmlns:xlink="http://www.w3.org/1999/xlink" xmlns="http://www.w3.org/2000/svg"><path fill="#ffffff" d="M0 0L600.0 0L600.0 371.0L0 371.0L0 0Z" fill-rule="nonzero"/><path stroke="#cccccc" stroke-width="1.0" stroke-linecap="butt" d="M140.5 51.5L140.5 332.5" fill-rule="nonzero"/><path stroke="#cccccc" stroke-width="1.0" stroke-linecap="butt" d="M225.5 51.5L225.5 332.5" fill-rule="nonzero"/><path stroke="#cccccc" stroke-width="1.0" stroke-linecap="butt" d="M310.5 51.5L310.5 332.5" fill-rule="nonzero"/><path stroke="#cccccc" stroke-width="1.0" stroke-linecap="butt" d="M395.5 51.5L395.5 332.5" fill-rule="nonzero"/><path stroke="#cccccc" stroke-width="1.0" stroke-linecap="butt" d="M480.5 51.5L480.5 332.5" fill-rule="nonzero"/><path stroke="#cccccc" stroke-width="1.0" stroke-linecap="butt" d="M565.5 51.5L565.5 332.5" fill-rule="nonzero"/><path stroke="#333333" stroke-width="1.0" stroke-linecap="butt" d="M59.5 332.5L581.5 332.5" fill-rule="nonzero"/><path stroke="#cccccc" stroke-width="1.0" stroke-linecap="butt" d="M59.5 262.5L581.5 262.5" fill-rule="nonzero"/><path stroke="#cccccc" stroke-width="1.0" stroke-linecap="butt" d="M59.5 192.5L581.5 192.5" fill-rule="nonzero"/><path stroke="#cccccc" stroke-width="1.0" stroke-linecap="butt" d="M59.5 122.5L581.5 122.5" fill-rule="nonzero"/><path stroke="#cccccc" stroke-width="1.0" stroke-linecap="butt" d="M59.5 51.5L581.5 51.5" fill-rule="nonzero"/><clipPath id="id_0"><path d="M59.55 51.916668L581.45 51.916668L581.45 332.45L59.55 332.45L59.55 51.916668Z" clip-rule="nonzero"/></clipPath><path stroke="#4285f4" stroke-width="2.0" stroke-linecap="butt" clip-path="url(#id_0)" d="M59.55 319.57352C59.55 319.57352 175.52777 283.93878 233.51666 258.81C291.50555 233.68123 581.45 78.79176 581.45 78.79176" fill-rule="nonzero"/><path stroke="#ea4335" stroke-width="2.0" stroke-linecap="butt" clip-path="url(#id_0)" d="M59.55 319.60156C59.55 319.60156 175.52777 287.25375 233.51666 262.31668C291.50555 237.3796 581.45 77.64157 581.45 77.64157" fill-rule="nonzero"/><path stroke="#fbbc04" stroke-width="2.0" stroke-linecap="butt" clip-path="url(#id_0)" d="M59.55 325.43668C59.55 325.43668 175.52777 321.14917 233.51666 318.42334C291.50555 315.69748 581.45 299.7398 581.45 299.7398" fill-rule="nonzero"/><path stroke="#34a853" stroke-width="2.0" stroke-linecap="butt" clip-path="url(#id_0)" d="M59.55 325.43668C59.55 325.43668 175.52777 321.15152 233.51666 318.42334C291.50555 315.69516 581.45 299.71176 581.45 299.71176" fill-rule="nonzero"/><path fill="#000000" fill-opacity="0.0" clip-path="url(#id_0)" d="M62.55 319.57352C62.55 321.23038 61.206856 322.57352 59.55 322.57352C57.893147 322.57352 56.55 321.23038 56.55 319.57352C56.55 317.91666 57.893147 316.57352 59.55 316.57352C61.206856 316.57352 62.55 317.91666 62.55 319.57352Z" fill-rule="nonzero"/><path fill="#000000" fill-opacity="0.0" clip-path="url(#id_0)" d="M236.51666 258.81C236.51666 260.46686 235.17352 261.81 233.51666 261.81C231.85982 261.81 230.51666 260.46686 230.51666 258.81C230.51666 257.15314 231.85982 255.81 233.51666 255.81C235.17352 255.81 236.51666 257.15314 236.51666 258.81Z" fill-rule="nonzero"/><path fill="#000000" fill-opacity="0.0" clip-path="url(#id_0)" d="M584.45 78.79176C584.45 80.448616 583.1069 81.79176 581.45 81.79176C579.79315 81.79176 578.45 80.448616 578.45 78.79176C578.45 77.1349 579.79315 75.79176 581.45 75.79176C583.1069 75.79176 584.45 77.1349 584.45 78.79176Z" fill-rule="nonzero"/><path fill="#000000" fill-opacity="0.0" clip-path="url(#id_0)" d="M62.55 319.60156C62.55 321.25842 61.206856 322.60156 59.55 322.60156C57.893147 322.60156 56.55 321.25842 56.55 319.60156C56.55 317.94473 57.893147 316.60156 59.55 316.60156C61.206856 316.60156 62.55 317.94473 62.55 319.60156Z" fill-rule="nonzero"/><path fill="#000000" fill-opacity="0.0" clip-path="url(#id_0)" d="M236.51666 262.31668C236.51666 263.9735 235.17352 265.31668 233.51666 265.31668C231.85982 265.31668 230.51666 263.9735 230.51666 262.31668C230.51666 260.65982 231.85982 259.31668 233.51666 259.31668C235.17352 259.31668 236.51666 260.65982 236.51666 262.31668Z" fill-rule="nonzero"/><path fill="#000000" fill-opacity="0.0" clip-path="url(#id_0)" d="M584.45 77.64157C584.45 79.29843 583.1069 80.64157 581.45 80.64157C579.79315 80.64157 578.45 79.29843 578.45 77.64157C578.45 75.98472 579.79315 74.64157 581.45 74.64157C583.1069 74.64157 584.45 75.98472 584.45 77.64157Z" fill-rule="nonzero"/><path fill="#000000" fill-opacity="0.0" clip-path="url(#id_0)" d="M62.55 325.43668C62.55 327.0935 61.206856 328.43668 59.55 328.43668C57.893147 328.43668 56.55 327.0935 56.55 325.43668C56.55 323.77982 57.893147 322.43668 59.55 322.43668C61.206856 322.43668 62.55 323.77982 62.55 325.43668Z" fill-rule="nonzero"/><path fill="#000000" fill-opacity="0.0" clip-path="url(#id_0)" d="M236.51666 318.42334C236.51666 320.0802 235.17352 321.42334 233.51666 321.42334C231.85982 321.42334 230.51666 320.0802 230.51666 318.42334C230.51666 316.76648 231.85982 315.42334 233.51666 315.42334C235.17352 315.42334 236.51666 316.76648 236.51666 318.42334Z" fill-rule="nonzero"/><path fill="#000000" fill-opacity="0.0" clip-path="url(#id_0)" d="M584.45 299.7398C584.45 301.39667 583.1069 302.7398 581.45 302.7398C579.79315 302.7398 578.45 301.39667 578.45 299.7398C578.45 298.08295 579.79315 296.7398 581.45 296.7398C583.1069 296.7398 584.45 298.08295 584.45 299.7398Z" fill-rule="nonzero"/><path fill="#000000" fill-opacity="0.0" clip-path="url(#id_0)" d="M62.55 325.43668C62.55 327.0935 61.206856 328.43668 59.55 328.43668C57.893147 328.43668 56.55 327.0935 56.55 325.43668C56.55 323.77982 57.893147 322.43668 59.55 322.43668C61.206856 322.43668 62.55 323.77982 62.55 325.43668Z" fill-rule="nonzero"/><path fill="#000000" fill-opacity="0.0" clip-path="url(#id_0)" d="M236.51666 318.42334C236.51666 320.0802 235.17352 321.42334 233.51666 321.42334C231.85982 321.42334 230.51666 320.0802 230.51666 318.42334C230.51666 316.76648 231.85982 315.42334 233.51666 315.42334C235.17352 315.42334 236.51666 316.76648 236.51666 318.42334Z" fill-rule="nonzero"/><path fill="#000000" fill-opacity="0.0" clip-path="url(#id_0)" d="M584.45 299.71176C584.45 301.36862 583.1069 302.71176 581.45 302.71176C579.79315 302.71176 578.45 301.36862 578.45 299.71176C578.45 298.0549 579.79315 296.71176 581.45 296.71176C583.1069 296.71176 584.45 298.0549 584.45 299.71176Z" fill-rule="nonzero"/><path fill="#000000" d="M47.05 332.21564Q47.05 330.6844 47.3625 329.7625Q47.675 328.825 48.284374 328.325Q48.909374 327.825 49.846874 327.825Q50.534374 327.825 51.05 328.10626Q51.58125 328.3875 51.925 328.91876Q52.26875 329.4344 52.45625 330.1844Q52.64375 330.9344 52.64375 332.21564Q52.64375 333.73126 52.33125 334.65314Q52.034374 335.575 51.409374 336.09064Q50.8 336.59064 49.846874 336.59064Q48.6125 336.59064 47.89375 335.7Q47.05 334.6375 47.05 332.21564ZM48.128124 332.21564Q48.128124 334.325 48.628124 335.02814Q49.128124 335.73126 49.846874 335.73126Q50.58125 335.73126 51.065624 335.02814Q51.565624 334.325 51.565624 332.21564Q51.565624 330.09064 51.065624 329.40314Q50.58125 328.7 49.83125 328.7Q49.1125 328.7 48.675 329.3094Q48.128124 330.09064 48.128124 332.21564Z" fill-rule="nonzero"/><path fill="#000000" d="M31.596874 265.30106L31.596874 266.31668L25.909374 266.31668Q25.909374 265.94168 26.034374 265.5823Q26.253124 265.00418 26.721874 264.44168Q27.20625 263.87918 28.1125 263.1448Q29.51875 261.98856 30.003124 261.31668Q30.503124 260.6448 30.503124 260.05106Q30.503124 259.42606 30.05 259.00418Q29.596874 258.56668 28.878124 258.56668Q28.1125 258.56668 27.659374 259.0198Q27.20625 259.47293 27.190624 260.28543L26.1125 260.17606Q26.221874 258.9573 26.940624 258.3323Q27.675 257.69168 28.909374 257.69168Q30.14375 257.69168 30.8625 258.37918Q31.58125 259.06668 31.58125 260.0823Q31.58125 260.59793 31.3625 261.09793Q31.159374 261.5823 30.659374 262.1448Q30.175 262.69168 29.05 263.6448Q28.096874 264.44168 27.815624 264.73856Q27.55 265.0198 27.378124 265.30106L31.596874 265.30106ZM33.05 264.06668L34.159374 263.97293Q34.284374 264.78543 34.721874 265.19168Q35.175 265.59793 35.815624 265.59793Q36.565624 265.59793 37.096874 265.0198Q37.628124 264.44168 37.628124 263.50418Q37.628124 262.59793 37.1125 262.0823Q36.6125 261.55106 35.784374 261.55106Q35.284374 261.55106 34.8625 261.78543Q34.45625 262.0198 34.221874 262.37918L33.2375 262.25418L34.065624 257.84793L38.346874 257.84793L38.346874 258.84793L34.909374 258.84793L34.45625 261.16043Q35.221874 260.61356 36.065624 260.61356Q37.190624 260.61356 37.95625 261.3948Q38.7375 262.17606 38.7375 263.41043Q38.7375 264.56668 38.065624 265.42606Q37.2375 266.4573 35.815624 266.4573Q34.64375 266.4573 33.89375 265.80106Q33.159374 265.1448 33.05 264.06668ZM40.05 262.0823Q40.05 260.55106 40.3625 259.62918Q40.675 258.69168 41.284374 258.19168Q41.909374 257.69168 42.846874 257.69168Q43.534374 257.69168 44.05 257.97293Q44.58125 258.25418 44.925 258.78543Q45.26875 259.30106 45.45625 260.05106Q45.64375 260.80106 45.64375 262.0823Q45.64375 263.59793 45.33125 264.5198Q45.034374 265.44168 44.409374 265.9573Q43.8 266.4573 42.846874 266.4573Q41.6125 266.4573 40.89375 265.56668Q40.05 264.50418 40.05 262.0823ZM41.128124 262.0823Q41.128124 264.19168 41.628124 264.8948Q42.128124 265.59793 42.846874 265.59793Q43.58125 265.59793 44.065624 264.8948Q44.565624 264.19168 44.565624 262.0823Q44.565624 259.9573 44.065624 259.2698Q43.58125 258.56668 42.83125 258.56668Q42.1125 258.56668 41.675 259.17606Q41.128124 259.9573 41.128124 262.0823ZM47.05 262.0823Q47.05 260.55106 47.3625 259.62918Q47.675 258.69168 48.284374 258.19168Q48.909374 257.69168 49.846874 257.69168Q50.534374 257.69168 51.05 257.97293Q51.58125 258.25418 51.925 258.78543Q52.26875 259.30106 52.45625 260.05106Q52.64375 260.80106 52.64375 262.0823Q52.64375 263.59793 52.33125 264.5198Q52.034374 265.44168 51.409374 265.9573Q50.8 266.4573 49.846874 266.4573Q48.6125 266.4573 47.89375 265.56668Q47.05 264.50418 47.05 262.0823ZM48.128124 262.0823Q48.128124 264.19168 48.628124 264.8948Q49.128124 265.59793 49.846874 265.59793Q50.58125 265.59793 51.065624 264.8948Q51.565624 264.19168 51.565624 262.0823Q51.565624 259.9573 51.065624 259.2698Q50.58125 258.56668 49.83125 258.56668Q49.1125 258.56668 48.675 259.17606Q48.128124 259.9573 48.128124 262.0823Z" fill-rule="nonzero"/><path fill="#000000" d="M26.05 193.93333L27.159374 193.83958Q27.284374 194.65208 27.721874 195.05833Q28.175 195.46458 28.815624 195.46458Q29.565624 195.46458 30.096874 194.88646Q30.628124 194.30833 30.628124 193.37083Q30.628124 192.46458 30.1125 191.94896Q29.6125 191.41771 28.784374 191.41771Q28.284374 191.41771 27.8625 191.65208Q27.45625 191.88646 27.221874 192.24583L26.2375 192.12083L27.065624 187.71458L31.346874 187.71458L31.346874 188.71458L27.909374 188.71458L27.45625 191.02708Q28.221874 190.48021 29.065624 190.48021Q30.190624 190.48021 30.95625 191.26146Q31.7375 192.04271 31.7375 193.27708Q31.7375 194.43333 31.065624 195.29271Q30.2375 196.32396 28.815624 196.32396Q27.64375 196.32396 26.89375 195.66771Q26.159374 195.01146 26.05 193.93333ZM33.05 191.94896Q33.05 190.41771 33.3625 189.49583Q33.675 188.55833 34.284374 188.05833Q34.909374 187.55833 35.846874 187.55833Q36.534374 187.55833 37.05 187.83958Q37.58125 188.12083 37.925 188.65208Q38.26875 189.16771 38.45625 189.91771Q38.64375 190.66771 38.64375 191.94896Q38.64375 193.46458 38.33125 194.38646Q38.034374 195.30833 37.409374 195.82396Q36.8 196.32396 35.846874 196.32396Q34.6125 196.32396 33.89375 195.43333Q33.05 194.37083 33.05 191.94896ZM34.128124 191.94896Q34.128124 194.05833 34.628124 194.76146Q35.128124 195.46458 35.846874 195.46458Q36.58125 195.46458 37.065624 194.76146Q37.565624 194.05833 37.565624 191.94896Q37.565624 189.82396 37.065624 189.13646Q36.58125 188.43333 35.83125 188.43333Q35.1125 188.43333 34.675 189.04271Q34.128124 189.82396 34.128124 191.94896ZM40.05 191.94896Q40.05 190.41771 40.3625 189.49583Q40.675 188.55833 41.284374 188.05833Q41.909374 187.55833 42.846874 187.55833Q43.534374 187.55833 44.05 187.83958Q44.58125 188.12083 44.925 188.65208Q45.26875 189.16771 45.45625 189.91771Q45.64375 190.66771 45.64375 191.94896Q45.64375 193.46458 45.33125 194.38646Q45.034374 195.30833 44.409374 195.82396Q43.8 196.32396 42.846874 196.32396Q41.6125 196.32396 40.89375 195.43333Q40.05 194.37083 40.05 191.94896ZM41.128124 191.94896Q41.128124 194.05833 41.628124 194.76146Q42.128124 195.46458 42.846874 195.46458Q43.58125 195.46458 44.065624 194.76146Q44.565624 194.05833 44.565624 191.94896Q44.565624 189.82396 44.065624 189.13646Q43.58125 188.43333 42.83125 188.43333Q42.1125 188.43333 41.675 189.04271Q41.128124 189.82396 41.128124 191.94896ZM47.05 191.94896Q47.05 190.41771 47.3625 189.49583Q47.675 188.55833 48.284374 188.05833Q48.909374 187.55833 49.846874 187.55833Q50.534374 187.55833 51.05 187.83958Q51.58125 188.12083 51.925 188.65208Q52.26875 189.16771 52.45625 189.91771Q52.64375 190.66771 52.64375 191.94896Q52.64375 193.46458 52.33125 194.38646Q52.034374 195.30833 51.409374 195.82396Q50.8 196.32396 49.846874 196.32396Q48.6125 196.32396 47.89375 195.43333Q47.05 194.37083 47.05 191.94896ZM48.128124 191.94896Q48.128124 194.05833 48.628124 194.76146Q49.128124 195.46458 49.846874 195.46458Q50.58125 195.46458 51.065624 194.76146Q51.565624 194.05833 51.565624 191.94896Q51.565624 189.82396 51.065624 189.13646Q50.58125 188.43333 49.83125 188.43333Q49.1125 188.43333 48.675 189.04271Q48.128124 189.82396 48.128124 191.94896Z" fill-rule="nonzero"/><path fill="#000000" d="M26.1125 118.58125L26.1125 117.56563L31.675 117.56563L31.675 118.39375Q30.8625 119.26875 30.05 120.72188Q29.253124 122.15938 28.815624 123.69063Q28.4875 124.76875 28.409374 126.05L27.315624 126.05Q27.33125 125.03438 27.70625 123.59688Q28.096874 122.15938 28.8 120.83125Q29.51875 119.50313 30.33125 118.58125L26.1125 118.58125ZM33.05 123.8L34.159374 123.70625Q34.284374 124.51875 34.721874 124.925Q35.175 125.33125 35.815624 125.33125Q36.565624 125.33125 37.096874 124.75313Q37.628124 124.175 37.628124 123.2375Q37.628124 122.33125 37.1125 121.81563Q36.6125 121.28438 35.784374 121.28438Q35.284374 121.28438 34.8625 121.51875Q34.45625 121.75313 34.221874 122.1125L33.2375 121.9875L34.065624 117.58125L38.346874 117.58125L38.346874 118.58125L34.909374 118.58125L34.45625 120.89375Q35.221874 120.34688 36.065624 120.34688Q37.190624 120.34688 37.95625 121.12813Q38.7375 121.90938 38.7375 123.14375Q38.7375 124.3 38.065624 125.15938Q37.2375 126.19063 35.815624 126.19063Q34.64375 126.19063 33.89375 125.53438Q33.159374 124.87813 33.05 123.8ZM40.05 121.81563Q40.05 120.28438 40.3625 119.3625Q40.675 118.425 41.284374 117.925Q41.909374 117.425 42.846874 117.425Q43.534374 117.425 44.05 117.70625Q44.58125 117.9875 44.925 118.51875Q45.26875 119.03438 45.45625 119.78438Q45.64375 120.53438 45.64375 121.81563Q45.64375 123.33125 45.33125 124.25313Q45.034374 125.175 44.409374 125.69063Q43.8 126.19063 42.846874 126.19063Q41.6125 126.19063 40.89375 125.3Q40.05 124.2375 40.05 121.81563ZM41.128124 121.81563Q41.128124 123.925 41.628124 124.62813Q42.128124 125.33125 42.846874 125.33125Q43.58125 125.33125 44.065624 124.62813Q44.565624 123.925 44.565624 121.81563Q44.565624 119.69063 44.065624 119.00313Q43.58125 118.3 42.83125 118.3Q42.1125 118.3 41.675 118.90938Q41.128124 119.69063 41.128124 121.81563ZM47.05 121.81563Q47.05 120.28438 47.3625 119.3625Q47.675 118.425 48.284374 117.925Q48.909374 117.425 49.846874 117.425Q50.534374 117.425 51.05 117.70625Q51.58125 117.9875 51.925 118.51875Q52.26875 119.03438 52.45625 119.78438Q52.64375 120.53438 52.64375 121.81563Q52.64375 123.33125 52.33125 124.25313Q52.034374 125.175 51.409374 125.69063Q50.8 126.19063 49.846874 126.19063Q48.6125 126.19063 47.89375 125.3Q47.05 124.2375 47.05 121.81563ZM48.128124 121.81563Q48.128124 123.925 48.628124 124.62813Q49.128124 125.33125 49.846874 125.33125Q50.58125 125.33125 51.065624 124.62813Q51.565624 123.925 51.565624 121.81563Q51.565624 119.69063 51.065624 119.00313Q50.58125 118.3 49.83125 118.3Q49.1125 118.3 48.675 118.90938Q48.128124 119.69063 48.128124 121.81563Z" fill-rule="nonzero"/><path fill="#000000" d="M23.01875 55.916668L21.971874 55.916668L21.971874 49.197918Q21.58125 49.557293 20.95625 49.932293Q20.346874 50.291668 19.8625 50.463543L19.8625 49.447918Q20.7375 49.026043 21.39375 48.447918Q22.065624 47.854168 22.346874 47.291668L23.01875 47.291668L23.01875 55.916668ZM26.05 51.682293Q26.05 50.151043 26.3625 49.229168Q26.675 48.291668 27.284374 47.791668Q27.909374 47.291668 28.846874 47.291668Q29.534374 47.291668 30.05 47.572918Q30.58125 47.854168 30.925 48.385418Q31.26875 48.901043 31.45625 49.651043Q31.64375 50.401043 31.64375 51.682293Q31.64375 53.197918 31.33125 54.119793Q31.034374 55.041668 30.409374 55.557293Q29.8 56.057293 28.846874 56.057293Q27.6125 56.057293 26.89375 55.166668Q26.05 54.104168 26.05 51.682293ZM27.128124 51.682293Q27.128124 53.791668 27.628124 54.494793Q28.128124 55.197918 28.846874 55.197918Q29.58125 55.197918 30.065624 54.494793Q30.565624 53.791668 30.565624 51.682293Q30.565624 49.557293 30.065624 48.869793Q29.58125 48.166668 28.83125 48.166668Q28.1125 48.166668 27.675 48.776043Q27.128124 49.557293 27.128124 51.682293ZM33.05 51.682293Q33.05 50.151043 33.3625 49.229168Q33.675 48.291668 34.284374 47.791668Q34.909374 47.291668 35.846874 47.291668Q36.534374 47.291668 37.05 47.572918Q37.58125 47.854168 37.925 48.385418Q38.26875 48.901043 38.45625 49.651043Q38.64375 50.401043 38.64375 51.682293Q38.64375 53.197918 38.33125 54.119793Q38.034374 55.041668 37.409374 55.557293Q36.8 56.057293 35.846874 56.057293Q34.6125 56.057293 33.89375 55.166668Q33.05 54.104168 33.05 51.682293ZM34.128124 51.682293Q34.128124 53.791668 34.628124 54.494793Q35.128124 55.197918 35.846874 55.197918Q36.58125 55.197918 37.065624 54.494793Q37.565624 53.791668 37.565624 51.682293Q37.565624 49.557293 37.065624 48.869793Q36.58125 48.166668 35.83125 48.166668Q35.1125 48.166668 34.675 48.776043Q34.128124 49.557293 34.128124 51.682293ZM40.05 51.682293Q40.05 50.151043 40.3625 49.229168Q40.675 48.291668 41.284374 47.791668Q41.909374 47.291668 42.846874 47.291668Q43.534374 47.291668 44.05 47.572918Q44.58125 47.854168 44.925 48.385418Q45.26875 48.901043 45.45625 49.651043Q45.64375 50.401043 45.64375 51.682293Q45.64375 53.197918 45.33125 54.119793Q45.034374 55.041668 44.409374 55.557293Q43.8 56.057293 42.846874 56.057293Q41.6125 56.057293 40.89375 55.166668Q40.05 54.104168 40.05 51.682293ZM41.128124 51.682293Q41.128124 53.791668 41.628124 54.494793Q42.128124 55.197918 42.846874 55.197918Q43.58125 55.197918 44.065624 54.494793Q44.565624 53.791668 44.565624 51.682293Q44.565624 49.557293 44.065624 48.869793Q43.58125 48.166668 42.83125 48.166668Q42.1125 48.166668 41.675 48.776043Q41.128124 49.557293 41.128124 51.682293ZM47.05 51.682293Q47.05 50.151043 47.3625 49.229168Q47.675 48.291668 48.284374 47.791668Q48.909374 47.291668 49.846874 47.291668Q50.534374 47.291668 51.05 47.572918Q51.58125 47.854168 51.925 48.385418Q52.26875 48.901043 52.45625 49.651043Q52.64375 50.401043 52.64375 51.682293Q52.64375 53.197918 52.33125 54.119793Q52.034374 55.041668 51.409374 55.557293Q50.8 56.057293 49.846874 56.057293Q48.6125 56.057293 47.89375 55.166668Q47.05 54.104168 47.05 51.682293ZM48.128124 51.682293Q48.128124 53.791668 48.628124 54.494793Q49.128124 55.197918 49.846874 55.197918Q50.58125 55.197918 51.065624 54.494793Q51.565624 53.791668 51.565624 51.682293Q51.565624 49.557293 51.065624 48.869793Q50.58125 48.166668 49.83125 48.166668Q49.1125 48.166668 48.675 48.776043Q48.128124 49.557293 48.128124 51.682293Z" fill-rule="nonzero"/><path fill="#000000" d="M130.47981 341.98126L130.47981 340.96564L136.04231 340.96564L136.04231 341.79376Q135.22981 342.66876 134.41731 344.1219Q133.62044 345.5594 133.18294 347.09064Q132.85481 348.16876 132.77669 349.45L131.68294 349.45Q131.69856 348.4344 132.07356 346.9969Q132.46419 345.5594 133.16731 344.23126Q133.88606 342.90314 134.69856 341.98126L130.47981 341.98126ZM137.41731 347.2L138.52669 347.10626Q138.65169 347.91876 139.08919 348.325Q139.54231 348.73126 140.18294 348.73126Q140.93294 348.73126 141.46419 348.15314Q141.99544 347.575 141.99544 346.6375Q141.99544 345.73126 141.47981 345.21564Q140.97981 344.6844 140.15169 344.6844Q139.65169 344.6844 139.22981 344.91876Q138.82356 345.15314 138.58919 345.5125L137.60481 345.3875L138.43294 340.98126L142.71419 340.98126L142.71419 341.98126L139.27669 341.98126L138.82356 344.29376Q139.58919 343.7469 140.43294 343.7469Q141.55794 343.7469 142.32356 344.52814Q143.10481 345.3094 143.10481 346.54376Q143.10481 347.7 142.43294 348.5594Q141.60481 349.59064 140.18294 349.59064Q139.01106 349.59064 138.26106 348.9344Q137.52669 348.27814 137.41731 347.2ZM144.41731 345.21564Q144.41731 343.6844 144.72981 342.7625Q145.04231 341.825 145.65169 341.325Q146.27669 340.825 147.21419 340.825Q147.90169 340.825 148.41731 341.10626Q148.94856 341.3875 149.29231 341.91876Q149.63606 342.4344 149.82356 343.1844Q150.01106 343.9344 150.01106 345.21564Q150.01106 346.73126 149.69856 347.65314Q149.40169 348.575 148.77669 349.09064Q148.16731 349.59064 147.21419 349.59064Q145.97981 349.59064 145.26106 348.7Q144.41731 347.6375 144.41731 345.21564ZM145.49544 345.21564Q145.49544 347.325 145.99544 348.02814Q146.49544 348.73126 147.21419 348.73126Q147.94856 348.73126 148.43294 348.02814Q148.93294 347.325 148.93294 345.21564Q148.93294 343.09064 148.43294 342.40314Q147.94856 341.7 147.19856 341.7Q146.47981 341.7 146.04231 342.3094Q145.49544 343.09064 145.49544 345.21564Z" fill-rule="nonzero"/><path fill="#000000" d="M215.83073 349.45L214.78386 349.45L214.78386 342.73126Q214.39323 343.09064 213.76823 343.46564Q213.15886 343.825 212.67448 343.9969L212.67448 342.98126Q213.54948 342.5594 214.20573 341.98126Q214.87761 341.3875 215.15886 340.825L215.83073 340.825L215.83073 349.45ZM218.86198 345.21564Q218.86198 343.6844 219.17448 342.7625Q219.48698 341.825 220.09636 341.325Q220.72136 340.825 221.65886 340.825Q222.34636 340.825 222.86198 341.10626Q223.39323 341.3875 223.73698 341.91876Q224.08073 342.4344 224.26823 343.1844Q224.45573 343.9344 224.45573 345.21564Q224.45573 346.73126 224.14323 347.65314Q223.84636 348.575 223.22136 349.09064Q222.61198 349.59064 221.65886 349.59064Q220.42448 349.59064 219.70573 348.7Q218.86198 347.6375 218.86198 345.21564ZM219.94011 345.21564Q219.94011 347.325 220.44011 348.02814Q220.94011 348.73126 221.65886 348.73126Q222.39323 348.73126 222.87761 348.02814Q223.37761 347.325 223.37761 345.21564Q223.37761 343.09064 222.87761 342.40314Q222.39323 341.7 221.64323 341.7Q220.92448 341.7 220.48698 342.3094Q219.94011 343.09064 219.94011 345.21564ZM225.86198 345.21564Q225.86198 343.6844 226.17448 342.7625Q226.48698 341.825 227.09636 341.325Q227.72136 340.825 228.65886 340.825Q229.34636 340.825 229.86198 341.10626Q230.39323 341.3875 230.73698 341.91876Q231.08073 342.4344 231.26823 343.1844Q231.45573 343.9344 231.45573 345.21564Q231.45573 346.73126 231.14323 347.65314Q230.84636 348.575 230.22136 349.09064Q229.61198 349.59064 228.65886 349.59064Q227.42448 349.59064 226.70573 348.7Q225.86198 347.6375 225.86198 345.21564ZM226.94011 345.21564Q226.94011 347.325 227.44011 348.02814Q227.94011 348.73126 228.65886 348.73126Q229.39323 348.73126 229.87761 348.02814Q230.37761 347.325 230.37761 345.21564Q230.37761 343.09064 229.87761 342.40314Q229.39323 341.7 228.64323 341.7Q227.92448 341.7 227.48698 342.3094Q226.94011 343.09064 226.94011 345.21564ZM232.86198 345.21564Q232.86198 343.6844 233.17448 342.7625Q233.48698 341.825 234.09636 341.325Q234.72136 340.825 235.65886 340.825Q236.34636 340.825 236.86198 341.10626Q237.39323 341.3875 237.73698 341.91876Q238.08073 342.4344 238.26823 343.1844Q238.45573 343.9344 238.45573 345.21564Q238.45573 346.73126 238.14323 347.65314Q237.84636 348.575 237.22136 349.09064Q236.61198 349.59064 235.65886 349.59064Q234.42448 349.59064 233.70573 348.7Q232.86198 347.6375 232.86198 345.21564ZM233.94011 345.21564Q233.94011 347.325 234.44011 348.02814Q234.94011 348.73126 235.65886 348.73126Q236.39323 348.73126 236.87761 348.02814Q237.37761 347.325 237.37761 345.21564Q237.37761 343.09064 236.87761 342.40314Q236.39323 341.7 235.64323 341.7Q234.92448 341.7 234.48698 342.3094Q233.94011 343.09064 233.94011 345.21564Z" fill-rule="nonzero"/><path fill="#000000" d="M300.7754 349.45L299.72852 349.45L299.72852 342.73126Q299.3379 343.09064 298.7129 343.46564Q298.10352 343.825 297.61914 343.9969L297.61914 342.98126Q298.49414 342.5594 299.1504 341.98126Q299.82227 341.3875 300.10352 340.825L300.7754 340.825L300.7754 349.45ZM309.35352 348.4344L309.35352 349.45L303.66602 349.45Q303.66602 349.075 303.79102 348.71564Q304.00977 348.1375 304.47852 347.575Q304.9629 347.0125 305.86914 346.27814Q307.2754 345.1219 307.75977 344.45Q308.25977 343.77814 308.25977 343.1844Q308.25977 342.5594 307.80664 342.1375Q307.35352 341.7 306.63477 341.7Q305.86914 341.7 305.41602 342.15314Q304.9629 342.60626 304.94727 343.41876L303.86914 343.3094Q303.97852 342.09064 304.69727 341.46564Q305.43164 340.825 306.66602 340.825Q307.9004 340.825 308.61914 341.5125Q309.3379 342.2 309.3379 343.21564Q309.3379 343.73126 309.11914 344.23126Q308.91602 344.71564 308.41602 345.27814Q307.93164 345.825 306.80664 346.77814Q305.85352 347.575 305.57227 347.8719Q305.30664 348.15314 305.13477 348.4344L309.35352 348.4344ZM310.80664 347.2L311.91602 347.10626Q312.04102 347.91876 312.47852 348.325Q312.93164 348.73126 313.57227 348.73126Q314.32227 348.73126 314.85352 348.15314Q315.38477 347.575 315.38477 346.6375Q315.38477 345.73126 314.86914 345.21564Q314.36914 344.6844 313.54102 344.6844Q313.04102 344.6844 312.61914 344.91876Q312.2129 345.15314 311.97852 345.5125L310.99414 345.3875L311.82227 340.98126L316.10352 340.98126L316.10352 341.98126L312.66602 341.98126L312.2129 344.29376Q312.97852 343.7469 313.82227 343.7469Q314.94727 343.7469 315.7129 344.52814Q316.49414 345.3094 316.49414 346.54376Q316.49414 347.7 315.82227 348.5594Q314.99414 349.59064 313.57227 349.59064Q312.4004 349.59064 311.6504 348.9344Q310.91602 348.27814 310.80664 347.2ZM317.80664 345.21564Q317.80664 343.6844 318.11914 342.7625Q318.43164 341.825 319.04102 341.325Q319.66602 340.825 320.60352 340.825Q321.29102 340.825 321.80664 341.10626Q322.3379 341.3875 322.68164 341.91876Q323.0254 342.4344 323.2129 343.1844Q323.4004 343.9344 323.4004 345.21564Q323.4004 346.73126 323.0879 347.65314Q322.79102 348.575 322.16602 349.09064Q321.55664 349.59064 320.60352 349.59064Q319.36914 349.59064 318.6504 348.7Q317.80664 347.6375 317.80664 345.21564ZM318.88477 345.21564Q318.88477 347.325 319.38477 348.02814Q319.88477 348.73126 320.60352 348.73126Q321.3379 348.73126 321.82227 348.02814Q322.32227 347.325 322.32227 345.21564Q322.32227 343.09064 321.82227 342.40314Q321.3379 341.7 320.5879 341.7Q319.86914 341.7 319.43164 342.3094Q318.88477 343.09064 318.88477 345.21564Z" fill-rule="nonzero"/><path fill="#000000" d="M385.72006 349.45L384.6732 349.45L384.6732 342.73126Q384.28256 343.09064 383.65756 343.46564Q383.0482 343.825 382.5638 343.9969L382.5638 342.98126Q383.4388 342.5594 384.09506 341.98126Q384.76694 341.3875 385.0482 340.825L385.72006 340.825L385.72006 349.45ZM388.7513 347.2L389.8607 347.10626Q389.9857 347.91876 390.4232 348.325Q390.8763 348.73126 391.51694 348.73126Q392.26694 348.73126 392.7982 348.15314Q393.32944 347.575 393.32944 346.6375Q393.32944 345.73126 392.8138 345.21564Q392.3138 344.6844 391.4857 344.6844Q390.9857 344.6844 390.5638 344.91876Q390.15756 345.15314 389.9232 345.5125L388.9388 345.3875L389.76694 340.98126L394.0482 340.98126L394.0482 341.98126L390.6107 341.98126L390.15756 344.29376Q390.9232 343.7469 391.76694 343.7469Q392.89194 343.7469 393.65756 344.52814Q394.4388 345.3094 394.4388 346.54376Q394.4388 347.7 393.76694 348.5594Q392.9388 349.59064 391.51694 349.59064Q390.34506 349.59064 389.59506 348.9344Q388.8607 348.27814 388.7513 347.2ZM395.7513 345.21564Q395.7513 343.6844 396.0638 342.7625Q396.3763 341.825 396.9857 341.325Q397.6107 340.825 398.5482 340.825Q399.2357 340.825 399.7513 341.10626Q400.28256 341.3875 400.6263 341.91876Q400.97006 342.4344 401.15756 343.1844Q401.34506 343.9344 401.34506 345.21564Q401.34506 346.73126 401.03256 347.65314Q400.7357 348.575 400.1107 349.09064Q399.5013 349.59064 398.5482 349.59064Q397.3138 349.59064 396.59506 348.7Q395.7513 347.6375 395.7513 345.21564ZM396.82944 345.21564Q396.82944 347.325 397.32944 348.02814Q397.82944 348.73126 398.5482 348.73126Q399.28256 348.73126 399.76694 348.02814Q400.26694 347.325 400.26694 345.21564Q400.26694 343.09064 399.76694 342.40314Q399.28256 341.7 398.53256 341.7Q397.8138 341.7 397.3763 342.3094Q396.82944 343.09064 396.82944 345.21564ZM402.7513 345.21564Q402.7513 343.6844 403.0638 342.7625Q403.3763 341.825 403.9857 341.325Q404.6107 340.825 405.5482 340.825Q406.2357 340.825 406.7513 341.10626Q407.28256 341.3875 407.6263 341.91876Q407.97006 342.4344 408.15756 343.1844Q408.34506 343.9344 408.34506 345.21564Q408.34506 346.73126 408.03256 347.65314Q407.7357 348.575 407.1107 349.09064Q406.5013 349.59064 405.5482 349.59064Q404.3138 349.59064 403.59506 348.7Q402.7513 347.6375 402.7513 345.21564ZM403.82944 345.21564Q403.82944 347.325 404.32944 348.02814Q404.82944 348.73126 405.5482 348.73126Q406.28256 348.73126 406.76694 348.02814Q407.26694 347.325 407.26694 345.21564Q407.26694 343.09064 406.76694 342.40314Q406.28256 341.7 405.53256 341.7Q404.8138 341.7 404.3763 342.3094Q403.82944 343.09064 403.82944 345.21564Z" fill-rule="nonzero"/><path fill="#000000" d="M470.6647 349.45L469.61783 349.45L469.61783 342.73126Q469.2272 343.09064 468.6022 343.46564Q467.99283 343.825 467.50845 343.9969L467.50845 342.98126Q468.38345 342.5594 469.0397 341.98126Q469.71158 341.3875 469.99283 340.825L470.6647 340.825L470.6647 349.45ZM473.75845 341.98126L473.75845 340.96564L479.32095 340.96564L479.32095 341.79376Q478.50845 342.66876 477.69595 344.1219Q476.89908 345.5594 476.46158 347.09064Q476.13345 348.16876 476.05533 349.45L474.96158 349.45Q474.9772 348.4344 475.3522 346.9969Q475.74283 345.5594 476.44595 344.23126Q477.1647 342.90314 477.9772 341.98126L473.75845 341.98126ZM480.69595 347.2L481.80533 347.10626Q481.93033 347.91876 482.36783 348.325Q482.82095 348.73126 483.46158 348.73126Q484.21158 348.73126 484.74283 348.15314Q485.27408 347.575 485.27408 346.6375Q485.27408 345.73126 484.75845 345.21564Q484.25845 344.6844 483.43033 344.6844Q482.93033 344.6844 482.50845 344.91876Q482.1022 345.15314 481.86783 345.5125L480.88345 345.3875L481.71158 340.98126L485.99283 340.98126L485.99283 341.98126L482.55533 341.98126L482.1022 344.29376Q482.86783 343.7469 483.71158 343.7469Q484.83658 343.7469 485.6022 344.52814Q486.38345 345.3094 486.38345 346.54376Q486.38345 347.7 485.71158 348.5594Q484.88345 349.59064 483.46158 349.59064Q482.2897 349.59064 481.5397 348.9344Q480.80533 348.27814 480.69595 347.2ZM487.69595 345.21564Q487.69595 343.6844 488.00845 342.7625Q488.32095 341.825 488.93033 341.325Q489.55533 340.825 490.49283 340.825Q491.18033 340.825 491.69595 341.10626Q492.2272 341.3875 492.57095 341.91876Q492.9147 342.4344 493.1022 343.1844Q493.2897 343.9344 493.2897 345.21564Q493.2897 346.73126 492.9772 347.65314Q492.68033 348.575 492.05533 349.09064Q491.44595 349.59064 490.49283 349.59064Q489.25845 349.59064 488.5397 348.7Q487.69595 347.6375 487.69595 345.21564ZM488.77408 345.21564Q488.77408 347.325 489.27408 348.02814Q489.77408 348.73126 490.49283 348.73126Q491.2272 348.73126 491.71158 348.02814Q492.21158 347.325 492.21158 345.21564Q492.21158 343.09064 491.71158 342.40314Q491.2272 341.7 490.4772 341.7Q489.75845 341.7 489.32095 342.3094Q488.77408 343.09064 488.77408 345.21564Z" fill-rule="nonzero"/><path fill="#000000" d="M557.1875 348.4344L557.1875 349.45L551.5 349.45Q551.5 349.075 551.625 348.71564Q551.84375 348.1375 552.3125 347.575Q552.7969 347.0125 553.7031 346.27814Q555.1094 345.1219 555.59375 344.45Q556.09375 343.77814 556.09375 343.1844Q556.09375 342.5594 555.6406 342.1375Q555.1875 341.7 554.46875 341.7Q553.7031 341.7 553.25 342.15314Q552.7969 342.60626 552.78125 343.41876L551.7031 343.3094Q551.8125 342.09064 552.53125 341.46564Q553.2656 340.825 554.5 340.825Q555.7344 340.825 556.4531 341.5125Q557.1719 342.2 557.1719 343.21564Q557.1719 343.73126 556.9531 344.23126Q556.75 344.71564 556.25 345.27814Q555.7656 345.825 554.6406 346.77814Q553.6875 347.575 553.40625 347.8719Q553.1406 348.15314 552.96875 348.4344L557.1875 348.4344ZM558.6406 345.21564Q558.6406 343.6844 558.9531 342.7625Q559.2656 341.825 559.875 341.325Q560.5 340.825 561.4375 340.825Q562.125 340.825 562.6406 341.10626Q563.1719 341.3875 563.5156 341.91876Q563.8594 342.4344 564.0469 343.1844Q564.2344 343.9344 564.2344 345.21564Q564.2344 346.73126 563.9219 347.65314Q563.625 348.575 563.0 349.09064Q562.3906 349.59064 561.4375 349.59064Q560.2031 349.59064 559.4844 348.7Q558.6406 347.6375 558.6406 345.21564ZM559.71875 345.21564Q559.71875 347.325 560.21875 348.02814Q560.71875 348.73126 561.4375 348.73126Q562.1719 348.73126 562.65625 348.02814Q563.15625 347.325 563.15625 345.21564Q563.15625 343.09064 562.65625 342.40314Q562.1719 341.7 561.4219 341.7Q560.7031 341.7 560.2656 342.3094Q559.71875 343.09064 559.71875 345.21564ZM565.6406 345.21564Q565.6406 343.6844 565.9531 342.7625Q566.2656 341.825 566.875 341.325Q567.5 340.825 568.4375 340.825Q569.125 340.825 569.6406 341.10626Q570.1719 341.3875 570.5156 341.91876Q570.8594 342.4344 571.0469 343.1844Q571.2344 343.9344 571.2344 345.21564Q571.2344 346.73126 570.9219 347.65314Q570.625 348.575 570.0 349.09064Q569.3906 349.59064 568.4375 349.59064Q567.2031 349.59064 566.4844 348.7Q565.6406 347.6375 565.6406 345.21564ZM566.71875 345.21564Q566.71875 347.325 567.21875 348.02814Q567.71875 348.73126 568.4375 348.73126Q569.1719 348.73126 569.65625 348.02814Q570.15625 347.325 570.15625 345.21564Q570.15625 343.09064 569.65625 342.40314Q569.1719 341.7 568.4219 341.7Q567.7031 341.7 567.2656 342.3094Q566.71875 343.09064 566.71875 345.21564ZM572.6406 345.21564Q572.6406 343.6844 572.9531 342.7625Q573.2656 341.825 573.875 341.325Q574.5 340.825 575.4375 340.825Q576.125 340.825 576.6406 341.10626Q577.1719 341.3875 577.5156 341.91876Q577.8594 342.4344 578.0469 343.1844Q578.2344 343.9344 578.2344 345.21564Q578.2344 346.73126 577.9219 347.65314Q577.625 348.575 577.0 349.09064Q576.3906 349.59064 575.4375 349.59064Q574.2031 349.59064 573.4844 348.7Q572.6406 347.6375 572.6406 345.21564ZM573.71875 345.21564Q573.71875 347.325 574.21875 348.02814Q574.71875 348.73126 575.4375 348.73126Q576.1719 348.73126 576.65625 348.02814Q577.15625 347.325 577.15625 345.21564Q577.15625 343.09064 576.65625 342.40314Q576.1719 341.7 575.4219 341.7Q574.7031 341.7 574.2656 342.3094Q573.71875 343.09064 573.71875 345.21564Z" fill-rule="nonzero"/><path stroke="#4285f4" stroke-width="4.0" stroke-linecap="butt" d="M81.0 25.55L93.0 25.55" fill-rule="nonzero"/><path fill="#1a1a1a" d="M101.875 29.55L101.875 20.95625L103.015625 20.95625L103.015625 28.534374L107.25 28.534374L107.25 29.55L101.875 29.55ZM108.796875 22.175L108.796875 20.95625L109.859375 20.95625L109.859375 22.175L108.796875 22.175ZM108.796875 29.55L108.796875 23.33125L109.859375 23.33125L109.859375 29.55L108.796875 29.55ZM111.796875 29.55L111.796875 23.33125L112.734375 23.33125L112.734375 24.20625Q113.421875 23.190624 114.71875 23.190624Q115.28125 23.190624 115.75 23.39375Q116.234375 23.596874 116.46875 23.925Q116.703125 24.253124 116.796875 24.690624Q116.84375 24.9875 116.84375 25.721874L116.84375 29.55L115.796875 29.55L115.796875 25.76875Q115.796875 25.1125 115.671875 24.8Q115.546875 24.4875 115.234375 24.3Q114.921875 24.096874 114.5 24.096874Q113.828125 24.096874 113.328125 24.534374Q112.84375 24.95625 112.84375 26.14375L112.84375 29.55L111.796875 29.55ZM118.796875 29.55L118.796875 20.95625L119.859375 20.95625L119.859375 25.8625L122.34375 23.33125L123.71875 23.33125L121.328125 25.628124L123.953125 29.55L122.65625 29.55L120.59375 26.3625L119.859375 27.08125L119.859375 29.55L118.796875 29.55ZM129.04688 27.55L130.14062 27.675Q129.89062 28.628124 129.1875 29.159374Q128.48438 29.690624 127.40625 29.690624Q126.046875 29.690624 125.234375 28.846874Q124.4375 28.003124 124.4375 26.4875Q124.4375 24.925 125.25 24.065624Q126.0625 23.190624 127.34375 23.190624Q128.59375 23.190624 129.375 24.034374Q130.17188 24.878124 130.17188 26.425Q130.17188 26.51875 130.17188 26.70625L125.53125 26.70625Q125.59375 27.7375 126.109375 28.284374Q126.625 28.815624 127.40625 28.815624Q127.984375 28.815624 128.39062 28.51875Q128.8125 28.20625 129.04688 27.55ZM125.59375 25.846874L129.0625 25.846874Q129.0 25.05 128.67188 24.659374Q128.15625 24.05 127.359375 24.05Q126.625 24.05 126.125 24.534374Q125.640625 25.01875 125.59375 25.846874ZM135.82812 29.55L135.82812 28.76875Q135.23438 29.690624 134.09375 29.690624Q133.34375 29.690624 132.71875 29.284374Q132.09375 28.8625 131.75 28.128124Q131.40625 27.39375 131.40625 26.440624Q131.40625 25.51875 131.71875 24.753124Q132.03125 23.9875 132.65625 23.596874Q133.28125 23.190624 134.04688 23.190624Q134.60938 23.190624 135.04688 23.425Q135.48438 23.659374 135.76562 24.034374L135.76562 20.95625L136.8125 20.95625L136.8125 29.55L135.82812 29.55ZM132.5 26.440624Q132.5 27.64375 133.0 28.2375Q133.5 28.815624 134.1875 28.815624Q134.875 28.815624 135.35938 28.253124Q135.84375 27.690624 135.84375 26.534374Q135.84375 25.253124 135.34375 24.659374Q134.85938 24.065624 134.14062 24.065624Q133.4375 24.065624 132.96875 24.64375Q132.5 25.20625 132.5 26.440624ZM138.875 29.55L138.875 20.95625L140.01562 20.95625L140.01562 28.534374L144.25 28.534374L144.25 29.55L138.875 29.55ZM145.79688 22.175L145.79688 20.95625L146.85938 20.95625L146.85938 22.175L145.79688 22.175ZM145.79688 29.55L145.79688 23.33125L146.85938 23.33125L146.85938 29.55L145.79688 29.55ZM148.375 27.690624L149.40625 27.534374Q149.5 28.159374 149.89062 28.4875Q150.29688 28.815624 151.03125 28.815624Q151.75 28.815624 152.09375 28.534374Q152.45312 28.2375 152.45312 27.83125Q152.45312 27.471874 152.14062 27.26875Q151.92188 27.128124 151.0625 26.909374Q149.90625 26.6125 149.45312 26.409374Q149.01562 26.190624 148.78125 25.815624Q148.54688 25.440624 148.54688 24.971874Q148.54688 24.565624 148.73438 24.20625Q148.92188 23.846874 149.25 23.6125Q149.5 23.440624 149.92188 23.315624Q150.34375 23.190624 150.84375 23.190624Q151.5625 23.190624 152.10938 23.409374Q152.67188 23.6125 152.9375 23.971874Q153.20312 24.33125 153.29688 24.925L152.26562 25.065624Q152.20312 24.596874 151.85938 24.33125Q151.53125 24.05 150.90625 24.05Q150.1875 24.05 149.875 24.3Q149.5625 24.534374 149.5625 24.8625Q149.5625 25.065624 149.6875 25.221874Q149.82812 25.39375 150.09375 25.503124Q150.25 25.565624 151.03125 25.76875Q152.15625 26.08125 152.59375 26.26875Q153.03125 26.45625 153.28125 26.815624Q153.53125 27.175 153.53125 27.721874Q153.53125 28.253124 153.21875 28.721874Q152.92188 29.175 152.34375 29.440624Q151.76562 29.690624 151.03125 29.690624Q149.8125 29.690624 149.17188 29.190624Q148.54688 28.675 148.375 27.690624ZM158.09375 28.6125L158.25 29.534374Q157.79688 29.628124 157.45312 29.628124Q156.875 29.628124 156.5625 29.45625Q156.25 29.26875 156.10938 28.971874Q155.98438 28.675 155.98438 27.721874L155.98438 24.14375L155.21875 24.14375L155.21875 23.33125L155.98438 23.33125L155.98438 21.784374L157.03125 21.159374L157.03125 23.33125L158.09375 23.33125L158.09375 24.14375L157.03125 24.14375L157.03125 27.784374Q157.03125 28.2375 157.07812 28.3625Q157.14062 28.4875 157.26562 28.565624Q157.39062 28.64375 157.625 28.64375Q157.8125 28.64375 158.09375 28.6125ZM165.82812 29.55L165.82812 28.76875Q165.23438 29.690624 164.09375 29.690624Q163.34375 29.690624 162.71875 29.284374Q162.09375 28.8625 161.75 28.128124Q161.40625 27.39375 161.40625 26.440624Q161.40625 25.51875 161.71875 24.753124Q162.03125 23.9875 162.65625 23.596874Q163.28125 23.190624 164.04688 23.190624Q164.60938 23.190624 165.04688 23.425Q165.48438 23.659374 165.76562 24.034374L165.76562 20.95625L166.8125 20.95625L166.8125 29.55L165.82812 29.55ZM162.5 26.440624Q162.5 27.64375 163.0 28.2375Q163.5 28.815624 164.1875 28.815624Q164.875 28.815624 165.35938 28.253124Q165.84375 27.690624 165.84375 26.534374Q165.84375 25.253124 165.34375 24.659374Q164.85938 24.065624 164.14062 24.065624Q163.4375 24.065624 162.96875 24.64375Q162.5 25.20625 162.5 26.440624ZM173.04688 27.55L174.14062 27.675Q173.89062 28.628124 173.1875 29.159374Q172.48438 29.690624 171.40625 29.690624Q170.04688 29.690624 169.23438 28.846874Q168.4375 28.003124 168.4375 26.4875Q168.4375 24.925 169.25 24.065624Q170.0625 23.190624 171.34375 23.190624Q172.59375 23.190624 173.375 24.034374Q174.17188 24.878124 174.17188 26.425Q174.17188 26.51875 174.17188 26.70625L169.53125 26.70625Q169.59375 27.7375 170.10938 28.284374Q170.625 28.815624 171.40625 28.815624Q171.98438 28.815624 172.39062 28.51875Q172.8125 28.20625 173.04688 27.55ZM169.59375 25.846874L173.0625 25.846874Q173.0 25.05 172.67188 24.659374Q172.15625 24.05 171.35938 24.05Q170.625 24.05 170.125 24.534374Q169.64062 25.01875 169.59375 25.846874ZM175.76562 29.55L175.76562 20.95625L176.82812 20.95625L176.82812 29.55L175.76562 29.55ZM183.04688 27.55L184.14062 27.675Q183.89062 28.628124 183.1875 29.159374Q182.48438 29.690624 181.40625 29.690624Q180.04688 29.690624 179.23438 28.846874Q178.4375 28.003124 178.4375 26.4875Q178.4375 24.925 179.25 24.065624Q180.0625 23.190624 181.34375 23.190624Q182.59375 23.190624 183.375 24.034374Q184.17188 24.878124 184.17188 26.425Q184.17188 26.51875 184.17188 26.70625L179.53125 26.70625Q179.59375 27.7375 180.10938 28.284374Q180.625 28.815624 181.40625 28.815624Q181.98438 28.815624 182.39062 28.51875Q182.8125 28.20625 183.04688 27.55ZM179.59375 25.846874L183.0625 25.846874Q183.0 25.05 182.67188 24.659374Q182.15625 24.05 181.35938 24.05Q180.625 24.05 180.125 24.534374Q179.64062 25.01875 179.59375 25.846874ZM188.09375 28.6125L188.25 29.534374Q187.79688 29.628124 187.45312 29.628124Q186.875 29.628124 186.5625 29.45625Q186.25 29.26875 186.10938 28.971874Q185.98438 28.675 185.98438 27.721874L185.98438 24.14375L185.21875 24.14375L185.21875 23.33125L185.98438 23.33125L185.98438 21.784374L187.03125 21.159374L187.03125 23.33125L188.09375 23.33125L188.09375 24.14375L187.03125 24.14375L187.03125 27.784374Q187.03125 28.2375 187.07812 28.3625Q187.14062 28.4875 187.26562 28.565624Q187.39062 28.64375 187.625 28.64375Q187.8125 28.64375 188.09375 28.6125ZM193.04688 27.55L194.14062 27.675Q193.89062 28.628124 193.1875 29.159374Q192.48438 29.690624 191.40625 29.690624Q190.04688 29.690624 189.23438 28.846874Q188.4375 28.003124 188.4375 26.4875Q188.4375 24.925 189.25 24.065624Q190.0625 23.190624 191.34375 23.190624Q192.59375 23.190624 193.375 24.034374Q194.17188 24.878124 194.17188 26.425Q194.17188 26.51875 194.17188 26.70625L189.53125 26.70625Q189.59375 27.7375 190.10938 28.284374Q190.625 28.815624 191.40625 28.815624Q191.98438 28.815624 192.39062 28.51875Q192.8125 28.20625 193.04688 27.55ZM189.59375 25.846874L193.0625 25.846874Q193.0 25.05 192.67188 24.659374Q192.15625 24.05 191.35938 24.05Q190.625 24.05 190.125 24.534374Q189.64062 25.01875 189.59375 25.846874Z" fill-rule="nonzero"/><path stroke="#ea4335" stroke-width="4.0" stroke-linecap="butt" d="M211.0 25.55L223.0 25.55" fill-rule="nonzero"/><path fill="#1a1a1a" d="M231.875 29.55L231.875 20.95625L233.01562 20.95625L233.01562 28.534374L237.25 28.534374L237.25 29.55L231.875 29.55ZM238.79688 22.175L238.79688 20.95625L239.85938 20.95625L239.85938 22.175L238.79688 22.175ZM238.79688 29.55L238.79688 23.33125L239.85938 23.33125L239.85938 29.55L238.79688 29.55ZM241.79688 29.55L241.79688 23.33125L242.73438 23.33125L242.73438 24.20625Q243.42188 23.190624 244.71875 23.190624Q245.28125 23.190624 245.75 23.39375Q246.23438 23.596874 246.46875 23.925Q246.70312 24.253124 246.79688 24.690624Q246.84375 24.9875 246.84375 25.721874L246.84375 29.55L245.79688 29.55L245.79688 25.76875Q245.79688 25.1125 245.67188 24.8Q245.54688 24.4875 245.23438 24.3Q244.92188 24.096874 244.5 24.096874Q243.82812 24.096874 243.32812 24.534374Q242.84375 24.95625 242.84375 26.14375L242.84375 29.55L241.79688 29.55ZM248.79688 29.55L248.79688 20.95625L249.85938 20.95625L249.85938 25.8625L252.34375 23.33125L253.71875 23.33125L251.32812 25.628124L253.95312 29.55L252.65625 29.55L250.59375 26.3625L249.85938 27.08125L249.85938 29.55L248.79688 29.55ZM259.04688 27.55L260.14062 27.675Q259.89062 28.628124 259.1875 29.159374Q258.48438 29.690624 257.40625 29.690624Q256.04688 29.690624 255.23438 28.846874Q254.4375 28.003124 254.4375 26.4875Q254.4375 24.925 255.25 24.065624Q256.0625 23.190624 257.34375 23.190624Q258.59375 23.190624 259.375 24.034374Q260.17188 24.878124 260.17188 26.425Q260.17188 26.51875 260.17188 26.70625L255.53125 26.70625Q255.59375 27.7375 256.10938 28.284374Q256.625 28.815624 257.40625 28.815624Q257.98438 28.815624 258.39062 28.51875Q258.8125 28.20625 259.04688 27.55ZM255.59375 25.846874L259.0625 25.846874Q259.0 25.05 258.67188 24.659374Q258.15625 24.05 257.35938 24.05Q256.625 24.05 256.125 24.534374Q255.64062 25.01875 255.59375 25.846874ZM265.82812 29.55L265.82812 28.76875Q265.23438 29.690624 264.09375 29.690624Q263.34375 29.690624 262.71875 29.284374Q262.09375 28.8625 261.75 28.128124Q261.40625 27.39375 261.40625 26.440624Q261.40625 25.51875 261.71875 24.753124Q262.03125 23.9875 262.65625 23.596874Q263.28125 23.190624 264.04688 23.190624Q264.60938 23.190624 265.04688 23.425Q265.48438 23.659374 265.76562 24.034374L265.76562 20.95625L266.8125 20.95625L266.8125 29.55L265.82812 29.55ZM262.5 26.440624Q262.5 27.64375 263.0 28.2375Q263.5 28.815624 264.1875 28.815624Q264.875 28.815624 265.35938 28.253124Q265.84375 27.690624 265.84375 26.534374Q265.84375 25.253124 265.34375 24.659374Q264.85938 24.065624 264.14062 24.065624Q263.4375 24.065624 262.96875 24.64375Q262.5 25.20625 262.5 26.440624ZM268.875 29.55L268.875 20.95625L270.01562 20.95625L270.01562 28.534374L274.25 28.534374L274.25 29.55L268.875 29.55ZM275.79688 22.175L275.79688 20.95625L276.85938 20.95625L276.85938 22.175L275.79688 22.175ZM275.79688 29.55L275.79688 23.33125L276.85938 23.33125L276.85938 29.55L275.79688 29.55ZM278.375 27.690624L279.40625 27.534374Q279.5 28.159374 279.89062 28.4875Q280.29688 28.815624 281.03125 28.815624Q281.75 28.815624 282.09375 28.534374Q282.45312 28.2375 282.45312 27.83125Q282.45312 27.471874 282.14062 27.26875Q281.92188 27.128124 281.0625 26.909374Q279.90625 26.6125 279.45312 26.409374Q279.01562 26.190624 278.78125 25.815624Q278.54688 25.440624 278.54688 24.971874Q278.54688 24.565624 278.73438 24.20625Q278.92188 23.846874 279.25 23.6125Q279.5 23.440624 279.92188 23.315624Q280.34375 23.190624 280.84375 23.190624Q281.5625 23.190624 282.10938 23.409374Q282.67188 23.6125 282.9375 23.971874Q283.20312 24.33125 283.29688 24.925L282.26562 25.065624Q282.20312 24.596874 281.85938 24.33125Q281.53125 24.05 280.90625 24.05Q280.1875 24.05 279.875 24.3Q279.5625 24.534374 279.5625 24.8625Q279.5625 25.065624 279.6875 25.221874Q279.82812 25.39375 280.09375 25.503124Q280.25 25.565624 281.03125 25.76875Q282.15625 26.08125 282.59375 26.26875Q283.03125 26.45625 283.28125 26.815624Q283.53125 27.175 283.53125 27.721874Q283.53125 28.253124 283.21875 28.721874Q282.92188 29.175 282.34375 29.440624Q281.76562 29.690624 281.03125 29.690624Q279.8125 29.690624 279.17188 29.190624Q278.54688 28.675 278.375 27.690624ZM288.09375 28.6125L288.25 29.534374Q287.79688 29.628124 287.45312 29.628124Q286.875 29.628124 286.5625 29.45625Q286.25 29.26875 286.10938 28.971874Q285.98438 28.675 285.98438 27.721874L285.98438 24.14375L285.21875 24.14375L285.21875 23.33125L285.98438 23.33125L285.98438 21.784374L287.03125 21.159374L287.03125 23.33125L288.09375 23.33125L288.09375 24.14375L287.03125 24.14375L287.03125 27.784374Q287.03125 28.2375 287.07812 28.3625Q287.14062 28.4875 287.26562 28.565624Q287.39062 28.64375 287.625 28.64375Q287.8125 28.64375 288.09375 28.6125ZM291.79688 22.175L291.79688 20.95625L292.85938 20.95625L292.85938 22.175L291.79688 22.175ZM291.79688 29.55L291.79688 23.33125L292.85938 23.33125L292.85938 29.55L291.79688 29.55ZM294.79688 29.55L294.79688 23.33125L295.73438 23.33125L295.73438 24.20625Q296.42188 23.190624 297.71875 23.190624Q298.28125 23.190624 298.75 23.39375Q299.23438 23.596874 299.46875 23.925Q299.70312 24.253124 299.79688 24.690624Q299.84375 24.9875 299.84375 25.721874L299.84375 29.55L298.79688 29.55L298.79688 25.76875Q298.79688 25.1125 298.67188 24.8Q298.54688 24.4875 298.23438 24.3Q297.92188 24.096874 297.5 24.096874Q296.82812 24.096874 296.32812 24.534374Q295.84375 24.95625 295.84375 26.14375L295.84375 29.55L294.79688 29.55ZM301.375 27.690624L302.40625 27.534374Q302.5 28.159374 302.89062 28.4875Q303.29688 28.815624 304.03125 28.815624Q304.75 28.815624 305.09375 28.534374Q305.45312 28.2375 305.45312 27.83125Q305.45312 27.471874 305.14062 27.26875Q304.92188 27.128124 304.0625 26.909374Q302.90625 26.6125 302.45312 26.409374Q302.01562 26.190624 301.78125 25.815624Q301.54688 25.440624 301.54688 24.971874Q301.54688 24.565624 301.73438 24.20625Q301.92188 23.846874 302.25 23.6125Q302.5 23.440624 302.92188 23.315624Q303.34375 23.190624 303.84375 23.190624Q304.5625 23.190624 305.10938 23.409374Q305.67188 23.6125 305.9375 23.971874Q306.20312 24.33125 306.29688 24.925L305.26562 25.065624Q305.20312 24.596874 304.85938 24.33125Q304.53125 24.05 303.90625 24.05Q303.1875 24.05 302.875 24.3Q302.5625 24.534374 302.5625 24.8625Q302.5625 25.065624 302.6875 25.221874Q302.82812 25.39375 303.09375 25.503124Q303.25 25.565624 304.03125 25.76875Q305.15625 26.08125 305.59375 26.26875Q306.03125 26.45625 306.28125 26.815624Q306.53125 27.175 306.53125 27.721874Q306.53125 28.253124 306.21875 28.721874Q305.92188 29.175 305.34375 29.440624Q304.76562 29.690624 304.03125 29.690624Q302.8125 29.690624 302.17188 29.190624Q301.54688 28.675 301.375 27.690624ZM313.04688 27.55L314.14062 27.675Q313.89062 28.628124 313.1875 29.159374Q312.48438 29.690624 311.40625 29.690624Q310.04688 29.690624 309.23438 28.846874Q308.4375 28.003124 308.4375 26.4875Q308.4375 24.925 309.25 24.065624Q310.0625 23.190624 311.34375 23.190624Q312.59375 23.190624 313.375 24.034374Q314.17188 24.878124 314.17188 26.425Q314.17188 26.51875 314.17188 26.70625L309.53125 26.70625Q309.59375 27.7375 310.10938 28.284374Q310.625 28.815624 311.40625 28.815624Q311.98438 28.815624 312.39062 28.51875Q312.8125 28.20625 313.04688 27.55ZM309.59375 25.846874L313.0625 25.846874Q313.0 25.05 312.67188 24.659374Q312.15625 24.05 311.35938 24.05Q310.625 24.05 310.125 24.534374Q309.64062 25.01875 309.59375 25.846874ZM315.78125 29.55L315.78125 23.33125L316.73438 23.33125L316.73438 24.26875Q317.09375 23.6125 317.39062 23.409374Q317.70312 23.190624 318.07812 23.190624Q318.60938 23.190624 319.15625 23.51875L318.79688 24.503124Q318.40625 24.26875 318.03125 24.26875Q317.67188 24.26875 317.39062 24.4875Q317.125 24.690624 317.01562 25.065624Q316.82812 25.628124 316.82812 26.284374L316.82812 29.55L315.78125 29.55ZM322.09375 28.6125L322.25 29.534374Q321.79688 29.628124 321.45312 29.628124Q320.875 29.628124 320.5625 29.45625Q320.25 29.26875 320.10938 28.971874Q319.98438 28.675 319.98438 27.721874L319.98438 24.14375L319.21875 24.14375L319.21875 23.33125L319.98438 23.33125L319.98438 21.784374L321.03125 21.159374L321.03125 23.33125L322.09375 23.33125L322.09375 24.14375L321.03125 24.14375L321.03125 27.784374Q321.03125 28.2375 321.07812 28.3625Q321.14062 28.4875 321.26562 28.565624Q321.39062 28.64375 321.625 28.64375Q321.8125 28.64375 322.09375 28.6125Z" fill-rule="nonzero"/><path stroke="#fbbc04" stroke-width="4.0" stroke-linecap="butt" d="M338.0 25.55L350.0 25.55" fill-rule="nonzero"/><path fill="#1a1a1a" d="M357.98438 29.55L361.28125 20.95625L362.5 20.95625L366.01562 29.55L364.73438 29.55L363.71875 26.940624L360.14062 26.940624L359.1875 29.55L357.98438 29.55ZM360.46875 26.01875L363.375 26.01875L362.48438 23.64375Q362.0625 22.565624 361.875 21.8625Q361.70312 22.690624 361.40625 23.503124L360.46875 26.01875ZM365.78125 29.55L365.78125 23.33125L366.73438 23.33125L366.73438 24.26875Q367.09375 23.6125 367.39062 23.409374Q367.70312 23.190624 368.07812 23.190624Q368.60938 23.190624 369.15625 23.51875L368.79688 24.503124Q368.40625 24.26875 368.03125 24.26875Q367.67188 24.26875 367.39062 24.4875Q367.125 24.690624 367.01562 25.065624Q366.82812 25.628124 366.82812 26.284374L366.82812 29.55L365.78125 29.55ZM369.78125 29.55L369.78125 23.33125L370.73438 23.33125L370.73438 24.26875Q371.09375 23.6125 371.39062 23.409374Q371.70312 23.190624 372.07812 23.190624Q372.60938 23.190624 373.15625 23.51875L372.79688 24.503124Q372.40625 24.26875 372.03125 24.26875Q371.67188 24.26875 371.39062 24.4875Q371.125 24.690624 371.01562 25.065624Q370.82812 25.628124 370.82812 26.284374L370.82812 29.55L369.78125 29.55ZM377.85938 28.784374Q377.26562 29.284374 376.71875 29.4875Q376.1875 29.690624 375.5625 29.690624Q374.53125 29.690624 373.98438 29.190624Q373.4375 28.690624 373.4375 27.909374Q373.4375 27.45625 373.64062 27.08125Q373.84375 26.690624 374.1875 26.471874Q374.53125 26.2375 374.95312 26.128124Q375.25 26.034374 375.89062 25.95625Q377.15625 25.815624 377.76562 25.596874Q377.76562 25.378124 377.76562 25.33125Q377.76562 24.675 377.46875 24.409374Q377.0625 24.065624 376.26562 24.065624Q375.53125 24.065624 375.17188 24.33125Q374.8125 24.58125 374.64062 25.2375L373.60938 25.096874Q373.75 24.440624 374.07812 24.034374Q374.40625 23.628124 375.01562 23.409374Q375.625 23.190624 376.42188 23.190624Q377.21875 23.190624 377.71875 23.378124Q378.21875 23.565624 378.45312 23.846874Q378.6875 24.128124 378.78125 24.565624Q378.82812 24.83125 378.82812 25.534374L378.82812 26.940624Q378.82812 28.409374 378.89062 28.8Q378.96875 29.190624 379.17188 29.55L378.0625 29.55Q377.90625 29.221874 377.85938 28.784374ZM377.76562 26.425Q377.1875 26.659374 376.04688 26.83125Q375.39062 26.925 375.125 27.05Q374.85938 27.159374 374.70312 27.378124Q374.5625 27.596874 374.5625 27.878124Q374.5625 28.3 374.875 28.58125Q375.20312 28.8625 375.8125 28.8625Q376.42188 28.8625 376.89062 28.596874Q377.375 28.33125 377.59375 27.8625Q377.76562 27.503124 377.76562 26.815624L377.76562 26.425ZM380.75 31.940624L380.625 30.95625Q380.96875 31.05 381.23438 31.05Q381.57812 31.05 381.78125 30.925Q382.0 30.815624 382.14062 30.6125Q382.23438 30.440624 382.46875 29.815624Q382.48438 29.7375 382.5625 29.565624L380.1875 23.33125L381.32812 23.33125L382.625 26.925Q382.875 27.6125 383.07812 28.378124Q383.26562 27.64375 383.51562 26.95625L384.84375 23.33125L385.89062 23.33125L383.53125 29.659374Q383.14062 30.675 382.9375 31.065624Q382.65625 31.596874 382.28125 31.83125Q381.92188 32.08125 381.42188 32.08125Q381.125 32.08125 380.75 31.940624ZM392.82812 29.55L392.82812 28.76875Q392.23438 29.690624 391.09375 29.690624Q390.34375 29.690624 389.71875 29.284374Q389.09375 28.8625 388.75 28.128124Q388.40625 27.39375 388.40625 26.440624Q388.40625 25.51875 388.71875 24.753124Q389.03125 23.9875 389.65625 23.596874Q390.28125 23.190624 391.04688 23.190624Q391.60938 23.190624 392.04688 23.425Q392.48438 23.659374 392.76562 24.034374L392.76562 20.95625L393.8125 20.95625L393.8125 29.55L392.82812 29.55ZM389.5 26.440624Q389.5 27.64375 390.0 28.2375Q390.5 28.815624 391.1875 28.815624Q391.875 28.815624 392.35938 28.253124Q392.84375 27.690624 392.84375 26.534374Q392.84375 25.253124 392.34375 24.659374Q391.85938 24.065624 391.14062 24.065624Q390.4375 24.065624 389.96875 24.64375Q389.5 25.20625 389.5 26.440624ZM400.04688 27.55L401.14062 27.675Q400.89062 28.628124 400.1875 29.159374Q399.48438 29.690624 398.40625 29.690624Q397.04688 29.690624 396.23438 28.846874Q395.4375 28.003124 395.4375 26.4875Q395.4375 24.925 396.25 24.065624Q397.0625 23.190624 398.34375 23.190624Q399.59375 23.190624 400.375 24.034374Q401.17188 24.878124 401.17188 26.425Q401.17188 26.51875 401.17188 26.70625L396.53125 26.70625Q396.59375 27.7375 397.10938 28.284374Q397.625 28.815624 398.40625 28.815624Q398.98438 28.815624 399.39062 28.51875Q399.8125 28.20625 400.04688 27.55ZM396.59375 25.846874L400.0625 25.846874Q400.0 25.05 399.67188 24.659374Q399.15625 24.05 398.35938 24.05Q397.625 24.05 397.125 24.534374Q396.64062 25.01875 396.59375 25.846874ZM402.76562 29.55L402.76562 20.95625L403.82812 20.95625L403.82812 29.55L402.76562 29.55ZM410.04688 27.55L411.14062 27.675Q410.89062 28.628124 410.1875 29.159374Q409.48438 29.690624 408.40625 29.690624Q407.04688 29.690624 406.23438 28.846874Q405.4375 28.003124 405.4375 26.4875Q405.4375 24.925 406.25 24.065624Q407.0625 23.190624 408.34375 23.190624Q409.59375 23.190624 410.375 24.034374Q411.17188 24.878124 411.17188 26.425Q411.17188 26.51875 411.17188 26.70625L406.53125 26.70625Q406.59375 27.7375 407.10938 28.284374Q407.625 28.815624 408.40625 28.815624Q408.98438 28.815624 409.39062 28.51875Q409.8125 28.20625 410.04688 27.55ZM406.59375 25.846874L410.0625 25.846874Q410.0 25.05 409.67188 24.659374Q409.15625 24.05 408.35938 24.05Q407.625 24.05 407.125 24.534374Q406.64062 25.01875 406.59375 25.846874ZM415.09375 28.6125L415.25 29.534374Q414.79688 29.628124 414.45312 29.628124Q413.875 29.628124 413.5625 29.45625Q413.25 29.26875 413.10938 28.971874Q412.98438 28.675 412.98438 27.721874L412.98438 24.14375L412.21875 24.14375L412.21875 23.33125L412.98438 23.33125L412.98438 21.784374L414.03125 21.159374L414.03125 23.33125L415.09375 23.33125L415.09375 24.14375L414.03125 24.14375L414.03125 27.784374Q414.03125 28.2375 414.07812 28.3625Q414.14062 28.4875 414.26562 28.565624Q414.39062 28.64375 414.625 28.64375Q414.8125 28.64375 415.09375 28.6125ZM420.04688 27.55L421.14062 27.675Q420.89062 28.628124 420.1875 29.159374Q419.48438 29.690624 418.40625 29.690624Q417.04688 29.690624 416.23438 28.846874Q415.4375 28.003124 415.4375 26.4875Q415.4375 24.925 416.25 24.065624Q417.0625 23.190624 418.34375 23.190624Q419.59375 23.190624 420.375 24.034374Q421.17188 24.878124 421.17188 26.425Q421.17188 26.51875 421.17188 26.70625L416.53125 26.70625Q416.59375 27.7375 417.10938 28.284374Q417.625 28.815624 418.40625 28.815624Q418.98438 28.815624 419.39062 28.51875Q419.8125 28.20625 420.04688 27.55ZM416.59375 25.846874L420.0625 25.846874Q420.0 25.05 419.67188 24.659374Q419.15625 24.05 418.35938 24.05Q417.625 24.05 417.125 24.534374Q416.64062 25.01875 416.59375 25.846874Z" fill-rule="nonzero"/><path stroke="#34a853" stroke-width="4.0" stroke-linecap="butt" d="M438.0 25.55L450.0 25.55" fill-rule="nonzero"/><path fill="#1a1a1a" d="M457.98438 29.55L461.28125 20.95625L462.5 20.95625L466.01562 29.55L464.73438 29.55L463.71875 26.940624L460.14062 26.940624L459.1875 29.55L457.98438 29.55ZM460.46875 26.01875L463.375 26.01875L462.48438 23.64375Q462.0625 22.565624 461.875 21.8625Q461.70312 22.690624 461.40625 23.503124L460.46875 26.01875ZM465.78125 29.55L465.78125 23.33125L466.73438 23.33125L466.73438 24.26875Q467.09375 23.6125 467.39062 23.409374Q467.70312 23.190624 468.07812 23.190624Q468.60938 23.190624 469.15625 23.51875L468.79688 24.503124Q468.40625 24.26875 468.03125 24.26875Q467.67188 24.26875 467.39062 24.4875Q467.125 24.690624 467.01562 25.065624Q466.82812 25.628124 466.82812 26.284374L466.82812 29.55L465.78125 29.55ZM469.78125 29.55L469.78125 23.33125L470.73438 23.33125L470.73438 24.26875Q471.09375 23.6125 471.39062 23.409374Q471.70312 23.190624 472.07812 23.190624Q472.60938 23.190624 473.15625 23.51875L472.79688 24.503124Q472.40625 24.26875 472.03125 24.26875Q471.67188 24.26875 471.39062 24.4875Q471.125 24.690624 471.01562 25.065624Q470.82812 25.628124 470.82812 26.284374L470.82812 29.55L469.78125 29.55ZM477.85938 28.784374Q477.26562 29.284374 476.71875 29.4875Q476.1875 29.690624 475.5625 29.690624Q474.53125 29.690624 473.98438 29.190624Q473.4375 28.690624 473.4375 27.909374Q473.4375 27.45625 473.64062 27.08125Q473.84375 26.690624 474.1875 26.471874Q474.53125 26.2375 474.95312 26.128124Q475.25 26.034374 475.89062 25.95625Q477.15625 25.815624 477.76562 25.596874Q477.76562 25.378124 477.76562 25.33125Q477.76562 24.675 477.46875 24.409374Q477.0625 24.065624 476.26562 24.065624Q475.53125 24.065624 475.17188 24.33125Q474.8125 24.58125 474.64062 25.2375L473.60938 25.096874Q473.75 24.440624 474.07812 24.034374Q474.40625 23.628124 475.01562 23.409374Q475.625 23.190624 476.42188 23.190624Q477.21875 23.190624 477.71875 23.378124Q478.21875 23.565624 478.45312 23.846874Q478.6875 24.128124 478.78125 24.565624Q478.82812 24.83125 478.82812 25.534374L478.82812 26.940624Q478.82812 28.409374 478.89062 28.8Q478.96875 29.190624 479.17188 29.55L478.0625 29.55Q477.90625 29.221874 477.85938 28.784374ZM477.76562 26.425Q477.1875 26.659374 476.04688 26.83125Q475.39062 26.925 475.125 27.05Q474.85938 27.159374 474.70312 27.378124Q474.5625 27.596874 474.5625 27.878124Q474.5625 28.3 474.875 28.58125Q475.20312 28.8625 475.8125 28.8625Q476.42188 28.8625 476.89062 28.596874Q477.375 28.33125 477.59375 27.8625Q477.76562 27.503124 477.76562 26.815624L477.76562 26.425ZM480.75 31.940624L480.625 30.95625Q480.96875 31.05 481.23438 31.05Q481.57812 31.05 481.78125 30.925Q482.0 30.815624 482.14062 30.6125Q482.23438 30.440624 482.46875 29.815624Q482.48438 29.7375 482.5625 29.565624L480.1875 23.33125L481.32812 23.33125L482.625 26.925Q482.875 27.6125 483.07812 28.378124Q483.26562 27.64375 483.51562 26.95625L484.84375 23.33125L485.89062 23.33125L483.53125 29.659374Q483.14062 30.675 482.9375 31.065624Q482.65625 31.596874 482.28125 31.83125Q481.92188 32.08125 481.42188 32.08125Q481.125 32.08125 480.75 31.940624ZM488.79688 22.175L488.79688 20.95625L489.85938 20.95625L489.85938 22.175L488.79688 22.175ZM488.79688 29.55L488.79688 23.33125L489.85938 23.33125L489.85938 29.55L488.79688 29.55ZM491.79688 29.55L491.79688 23.33125L492.73438 23.33125L492.73438 24.20625Q493.42188 23.190624 494.71875 23.190624Q495.28125 23.190624 495.75 23.39375Q496.23438 23.596874 496.46875 23.925Q496.70312 24.253124 496.79688 24.690624Q496.84375 24.9875 496.84375 25.721874L496.84375 29.55L495.79688 29.55L495.79688 25.76875Q495.79688 25.1125 495.67188 24.8Q495.54688 24.4875 495.23438 24.3Q494.92188 24.096874 494.5 24.096874Q493.82812 24.096874 493.32812 24.534374Q492.84375 24.95625 492.84375 26.14375L492.84375 29.55L491.79688 29.55ZM498.375 27.690624L499.40625 27.534374Q499.5 28.159374 499.89062 28.4875Q500.29688 28.815624 501.03125 28.815624Q501.75 28.815624 502.09375 28.534374Q502.45312 28.2375 502.45312 27.83125Q502.45312 27.471874 502.14062 27.26875Q501.92188 27.128124 501.0625 26.909374Q499.90625 26.6125 499.45312 26.409374Q499.01562 26.190624 498.78125 25.815624Q498.54688 25.440624 498.54688 24.971874Q498.54688 24.565624 498.73438 24.20625Q498.92188 23.846874 499.25 23.6125Q499.5 23.440624 499.92188 23.315624Q500.34375 23.190624 500.84375 23.190624Q501.5625 23.190624 502.10938 23.409374Q502.67188 23.6125 502.9375 23.971874Q503.20312 24.33125 503.29688 24.925L502.26562 25.065624Q502.20312 24.596874 501.85938 24.33125Q501.53125 24.05 500.90625 24.05Q500.1875 24.05 499.875 24.3Q499.5625 24.534374 499.5625 24.8625Q499.5625 25.065624 499.6875 25.221874Q499.82812 25.39375 500.09375 25.503124Q500.25 25.565624 501.03125 25.76875Q502.15625 26.08125 502.59375 26.26875Q503.03125 26.45625 503.28125 26.815624Q503.53125 27.175 503.53125 27.721874Q503.53125 28.253124 503.21875 28.721874Q502.92188 29.175 502.34375 29.440624Q501.76562 29.690624 501.03125 29.690624Q499.8125 29.690624 499.17188 29.190624Q498.54688 28.675 498.375 27.690624ZM510.04688 27.55L511.14062 27.675Q510.89062 28.628124 510.1875 29.159374Q509.48438 29.690624 508.40625 29.690624Q507.04688 29.690624 506.23438 28.846874Q505.4375 28.003124 505.4375 26.4875Q505.4375 24.925 506.25 24.065624Q507.0625 23.190624 508.34375 23.190624Q509.59375 23.190624 510.375 24.034374Q511.17188 24.878124 511.17188 26.425Q511.17188 26.51875 511.17188 26.70625L506.53125 26.70625Q506.59375 27.7375 507.10938 28.284374Q507.625 28.815624 508.40625 28.815624Q508.98438 28.815624 509.39062 28.51875Q509.8125 28.20625 510.04688 27.55ZM506.59375 25.846874L510.0625 25.846874Q510.0 25.05 509.67188 24.659374Q509.15625 24.05 508.35938 24.05Q507.625 24.05 507.125 24.534374Q506.64062 25.01875 506.59375 25.846874ZM512.78125 29.55L512.78125 23.33125L513.7344 23.33125L513.7344 24.26875Q514.09375 23.6125 514.3906 23.409374Q514.7031 23.190624 515.0781 23.190624Q515.6094 23.190624 516.15625 23.51875L515.7969 24.503124Q515.40625 24.26875 515.03125 24.26875Q514.6719 24.26875 514.3906 24.4875Q514.125 24.690624 514.0156 25.065624Q513.8281 25.628124 513.8281 26.284374L513.8281 29.55L512.78125 29.55ZM519.09375 28.6125L519.25 29.534374Q518.7969 29.628124 518.4531 29.628124Q517.875 29.628124 517.5625 29.45625Q517.25 29.26875 517.1094 28.971874Q516.9844 28.675 516.9844 27.721874L516.9844 24.14375L516.21875 24.14375L516.21875 23.33125L516.9844 23.33125L516.9844 21.784374L518.03125 21.159374L518.03125 23.33125L519.09375 23.33125L519.09375 24.14375L518.03125 24.14375L518.03125 27.784374Q518.03125 28.2375 518.0781 28.3625Q518.1406 28.4875 518.2656 28.565624Q518.3906 28.64375 518.625 28.64375Q518.8125 28.64375 519.09375 28.6125Z" fill-rule="nonzero"/></svg>